<?xml version="1.0" standalone="no"?>
<!DOCTYPE svg PUBLIC "-//W3C//DTD SVG 20010904//EN"
 "http://www.w3.org/TR/2001/REC-SVG-20010904/DTD/svg10.dtd">
<svg version="1.0" xmlns="http://www.w3.org/2000/svg"
 width="363.000000pt" height="363.000000pt" viewBox="0 0 363.000000 363.000000"
 preserveAspectRatio="xMidYMid meet">
<metadata>
Created by potrace 1.11, written by Peter Selinger 2001-2013
</metadata>
<g transform="translate(0.000000,363.000000) scale(0.100000,-0.100000)"
fill="#000000" stroke="none">
<path d="M1951 3609 c-121 -24 -277 -98 -405 -192 -99 -73 -261 -230 -366
-354 -250 -295 -438 -720 -481 -1084 -16 -138 -6 -358 20 -464 91 -368 359
-818 747 -1257 92 -103 110 -119 205 -172 57 -32 114 -60 126 -62 21 -4 36 23
178 306 252 503 505 1053 491 1067 -2 2 -23 -23 -47 -56 -24 -33 -51 -60 -60
-60 -9 -1 -19 -8 -23 -16 -7 -20 -72 -20 -79 -1 -4 11 -14 13 -33 7 -48 -12
-98 12 -121 57 -1 2 -13 -4 -27 -13 l-25 -17 21 -28 c25 -34 17 -50 -40 -77
-42 -20 -78 -21 -121 -3 -28 11 -40 10 -94 -6 -45 -14 -93 -19 -177 -19 -105
0 -120 2 -174 28 -123 57 -204 154 -253 300 -25 76 -27 94 -28 257 0 135 4
195 19 260 120 548 533 1056 952 1171 110 30 245 24 328 -14 125 -58 208 -158
250 -301 35 -119 56 -214 51 -228 -4 -15 63 -74 73 -63 4 3 7 91 6 193 0 161
-3 198 -22 266 -50 181 -156 329 -284 396 -35 18 -89 51 -121 73 -148 99 -325
138 -486 106z"/>
<path d="M2124 3100 c-73 -26 -94 -38 -88 -53 3 -8 0 -26 -5 -40 -10 -25 -8
-28 32 -46 85 -37 117 -34 131 15 5 18 1 24 -22 32 -44 15 -47 48 -9 83 36 33
31 34 -39 9z"/>
<path d="M1955 3020 c-3 -5 -1 -10 4 -10 6 0 11 5 11 10 0 6 -2 10 -4 10 -3 0
-8 -4 -11 -10z"/>
<path d="M2463 3013 c-14 -3 -23 -12 -23 -22 0 -27 -20 -39 -63 -39 -21 0 -41
-3 -44 -6 -4 -3 -14 1 -24 10 -30 27 -52 10 -46 -34 3 -28 0 -45 -14 -63 -15
-20 -19 -21 -19 -6 0 22 -16 22 -46 -2 l-25 -19 31 -7 c28 -6 35 -15 31 -39
-3 -16 32 -46 53 -46 24 0 64 25 84 52 22 31 48 39 78 26 24 -11 28 -10 50 17
14 17 29 36 35 43 6 7 16 11 22 9 18 -5 21 -46 5 -65 -7 -9 -22 -34 -32 -54
-11 -21 -23 -38 -28 -38 -15 0 -9 -18 16 -47 22 -26 25 -27 43 -12 10 9 26 19
36 22 9 4 17 13 17 22 0 8 9 15 20 15 29 0 25 -21 -15 -66 -19 -21 -35 -41
-35 -44 1 -3 9 -28 18 -56 22 -62 46 -102 79 -130 21 -18 23 -24 13 -46 -7
-14 -27 -32 -45 -41 l-34 -16 -7 45 c-3 24 -10 47 -14 49 -5 3 -7 27 -5 53 4
60 -5 78 -33 63 -11 -6 -23 -18 -26 -28 -5 -13 -9 -14 -15 -5 -5 9 -20 10 -57
3 -32 -6 -53 -6 -61 1 -14 11 -43 -11 -43 -33 0 -10 -3 -10 -12 -1 -16 16 -28
15 -28 -2 0 -8 9 -18 21 -21 16 -5 20 -13 16 -31 -5 -30 17 -52 37 -35 10 9
16 8 26 -4 9 -10 27 -15 52 -13 32 2 44 -3 58 -22 12 -16 23 -21 35 -16 15 5
16 2 11 -28 -5 -28 -3 -37 14 -49 20 -14 20 -15 3 -22 -29 -13 -103 -15 -103
-3 0 5 -6 8 -14 5 -8 -3 -16 2 -19 14 -3 11 -11 19 -19 18 -28 -3 -37 2 -32
19 5 14 3 14 -11 -3 -16 -20 -16 -20 -21 2 -7 27 -32 37 -50 22 -18 -15 -18
-25 0 -32 10 -4 13 -1 9 9 -6 16 12 20 22 4 9 -14 -33 -70 -51 -70 -10 0 -5
-9 14 -25 17 -14 34 -25 40 -25 6 0 12 -6 15 -12 3 -10 8 -9 22 2 17 14 17 14
7 -7 -7 -12 -9 -29 -6 -37 7 -18 24 -22 24 -6 0 6 7 10 15 10 21 0 19 -9 -7
-31 -13 -10 -17 -18 -10 -19 6 0 12 4 12 10 0 5 7 7 15 4 8 -4 15 -1 15 5 0 6
7 11 15 11 22 0 18 -15 -7 -27 l-23 -11 25 -10 c19 -7 26 -6 28 4 6 23 32 16
42 -11 5 -14 14 -25 19 -25 18 0 42 33 38 52 -4 15 -1 18 14 13 11 -4 19 -2
19 4 0 6 -5 11 -11 11 -13 0 -3 68 13 87 6 7 7 24 4 38 -6 22 -3 25 22 25 17
0 40 -12 60 -30 18 -16 35 -30 37 -30 16 0 61 61 63 85 5 40 19 55 53 55 38 0
61 39 38 66 -5 6 -7 18 -4 26 3 8 -1 21 -10 28 -8 7 -15 28 -15 50 0 32 -6 43
-45 75 -50 41 -71 37 -77 -13 -3 -23 -9 -28 -38 -30 -19 -2 -41 -9 -48 -15
-15 -12 -32 5 -32 34 0 8 -5 20 -12 27 -16 16 4 38 23 26 25 -15 91 -3 110 19
27 33 26 41 -29 127 -12 19 -22 43 -22 52 0 10 -9 22 -20 28 -11 6 -20 17 -20
25 0 8 -9 15 -20 15 -20 0 -60 63 -60 93 0 28 -65 58 -107 50z m182 -373 c0
-7 -6 -15 -12 -17 -8 -3 -13 4 -13 17 0 13 5 20 13 18 6 -3 12 -11 12 -18z
m-271 -215 c-7 -16 -24 -21 -24 -6 0 8 7 13 27 20 1 1 0 -6 -3 -14z m203 -67
c-3 -8 -6 -5 -6 6 -1 11 2 17 5 13 3 -3 4 -12 1 -19z m-222 -118 c-11 -5 -15
-9 -10 -9 6 -1 3 -6 -5 -11 -12 -7 -10 -11 10 -19 24 -9 24 -10 -7 -10 -18 -1
-33 3 -33 9 0 17 34 50 50 49 10 0 9 -3 -5 -9z m65 -9 c0 -9 -41 -23 -49 -16
-3 4 28 20 47 24 1 1 2 -3 2 -8z m140 -62 c0 -6 -4 -7 -10 -4 -5 3 -10 11 -10
16 0 6 5 7 10 4 6 -3 10 -11 10 -16z"/>
<path d="M1902 2977 c-73 -39 -99 -71 -67 -83 8 -4 15 -14 15 -24 0 -10 6 -33
14 -52 14 -32 13 -34 -6 -35 -14 -1 -18 3 -14 14 5 12 3 13 -7 5 -15 -13 -22
-82 -8 -82 5 0 11 5 13 12 3 7 11 -2 18 -19 8 -18 23 -34 35 -35 11 -2 19 -9
17 -17 -1 -7 3 -19 9 -27 9 -11 8 -18 -1 -29 -8 -9 -9 -15 -2 -15 6 0 13 4 16
8 3 5 19 7 36 4 18 -2 30 0 30 7 0 6 -6 11 -12 11 -8 0 -5 7 6 15 11 8 15 15
8 15 -6 0 -9 7 -5 16 3 9 0 20 -8 24 -10 7 -6 12 14 21 16 7 26 18 23 25 -3 8
0 11 10 7 8 -3 14 1 14 8 0 23 -18 44 -37 44 -10 0 -18 7 -18 15 0 8 -4 21 -9
28 -5 8 -4 18 3 25 6 6 11 17 11 24 0 7 9 22 21 34 20 20 20 22 3 40 -21 23
-59 26 -50 3 3 -8 2 -12 -4 -9 -6 3 -10 12 -10 20 0 15 -30 16 -58 2z"/>
<path d="M2037 2893 c-4 -3 -7 -11 -7 -17 0 -6 5 -5 12 2 6 6 9 14 7 17 -3 3
-9 2 -12 -2z"/>
<path d="M2092 2858 c5 -15 48 -18 48 -3 0 6 -11 11 -26 13 -18 3 -25 0 -22
-10z"/>
<path d="M1645 2743 c-27 -32 -56 -66 -64 -76 -14 -17 -14 -20 2 -28 9 -6 17
-17 17 -24 0 -8 7 -15 15 -15 8 0 15 -7 15 -15 0 -16 -36 -21 -42 -6 -6 17
-53 17 -53 1 0 -11 8 -14 29 -12 23 3 28 1 23 -12 -5 -14 -3 -15 13 -6 11 6
20 7 20 2 0 -9 -28 -25 -64 -37 -19 -6 -19 -5 -3 13 23 26 22 30 -13 28 -33
-2 -54 -27 -110 -134 -22 -44 -30 -70 -26 -87 6 -25 -9 -36 -16 -13 -3 7 -13
-10 -22 -37 -10 -28 -25 -63 -33 -78 -8 -15 -12 -34 -10 -42 3 -7 -1 -21 -8
-32 -8 -10 -11 -28 -8 -41 3 -15 0 -27 -10 -35 -21 -16 -46 -139 -30 -144 6
-2 9 -13 6 -23 -3 -11 0 -20 6 -20 6 0 11 5 11 10 0 22 21 8 46 -31 14 -22 28
-38 31 -35 3 3 -2 17 -11 30 -9 14 -16 37 -16 51 0 36 29 32 36 -5 6 -29 18
-38 27 -22 2 4 2 2 1 -5 -6 -26 12 -20 25 8 12 28 11 32 -8 46 -21 14 -21 16
-5 34 9 11 14 22 10 26 -4 4 -11 2 -15 -6 -7 -10 -10 -9 -14 3 -4 9 -13 16
-21 16 -28 0 -46 57 -39 122 6 60 18 66 27 14 6 -31 16 -48 16 -26 0 11 3 11
12 2 10 -10 10 -15 -1 -21 -7 -5 -10 -14 -7 -20 5 -8 11 -7 20 2 17 16 30 57
19 57 -4 0 -16 7 -27 15 -17 13 -17 15 -2 30 19 19 21 52 4 57 -8 3 -5 15 11
36 12 18 17 32 11 32 -7 0 -6 5 2 14 7 8 17 13 22 13 5 -1 13 13 18 31 9 33
28 44 28 16 0 -13 6 -11 26 9 15 15 32 23 41 20 10 -4 11 -8 3 -13 -6 -3 -8
-14 -5 -23 4 -10 -1 -21 -14 -29 -12 -7 -21 -22 -21 -33 0 -24 36 -59 45 -44
4 5 11 7 16 4 5 -4 9 -2 9 4 0 16 -18 22 -23 9 -3 -9 -10 -7 -21 7 -21 27 -20
34 9 41 13 3 29 12 36 20 9 11 15 11 25 3 8 -6 14 -7 14 -2 0 5 9 9 20 10 27
2 26 0 -17 -41 -28 -27 -33 -36 -20 -36 9 0 17 5 17 10 0 6 5 10 11 10 6 0 18
9 27 21 17 20 52 19 52 -2 0 -4 -7 -6 -15 -3 -10 4 -15 0 -15 -11 0 -9 4 -14
9 -11 5 3 11 -3 14 -14 3 -11 1 -20 -4 -20 -5 0 -9 -7 -9 -16 0 -25 -32 -45
-48 -31 -11 9 -13 6 -10 -13 2 -19 8 -24 26 -22 12 2 22 -1 22 -6 0 -13 -49
-22 -56 -10 -4 6 -10 5 -15 -3 -7 -11 -9 -11 -9 -1 0 7 -4 11 -9 8 -5 -4 -7 4
-4 15 5 16 2 20 -8 17 -8 -3 -13 -11 -11 -17 3 -16 -5 -14 -27 8 -11 11 -17
22 -13 25 3 3 -2 6 -11 6 -10 0 -16 -6 -15 -12 2 -7 -2 -12 -8 -11 -13 2 -15
-28 -1 -44 5 -7 6 -13 1 -14 -5 0 -17 -2 -26 -4 -9 -2 -23 4 -30 13 -11 15
-11 15 3 4 14 -11 17 -9 22 14 3 18 1 22 -6 15 -8 -8 -16 -6 -28 5 -16 14 -18
14 -24 -5 -4 -14 1 -31 17 -51 13 -17 33 -43 44 -58 22 -28 26 -77 6 -77 -13
0 -14 -7 -6 -30 8 -19 24 -19 24 0 0 23 15 18 30 -10 15 -27 40 -34 40 -10 0
7 -7 18 -17 23 -14 8 -13 12 11 27 23 16 29 16 36 4 6 -9 3 -20 -7 -31 -13
-15 -13 -20 -3 -33 11 -13 10 -18 -6 -29 -17 -13 -17 -14 9 -9 16 3 27 1 27
-6 0 -6 -9 -11 -19 -11 -11 0 -25 -2 -33 -5 -8 -3 -18 6 -25 25 -13 35 -33 40
-33 8 0 -19 2 -20 11 -8 9 13 10 13 6 -1 -6 -19 1 -32 28 -47 18 -10 19 -11 2
-12 -18 0 -18 -1 1 -27 16 -22 18 -32 9 -67 -6 -22 -19 -48 -30 -56 -17 -14
-18 -19 -6 -37 7 -12 19 -19 26 -16 8 3 13 -2 13 -12 0 -12 5 -15 16 -11 9 3
18 6 20 6 2 0 4 6 4 13 0 14 58 15 99 2 13 -4 28 -1 37 6 17 14 19 12 29 -19
6 -21 4 -23 -14 -17 -12 3 -35 3 -52 0 -29 -7 -30 -8 -13 -26 9 -10 25 -19 35
-19 9 0 20 -6 22 -12 3 -8 6 -6 6 5 1 18 21 25 21 6 0 -5 10 -9 21 -7 25 3 53
-31 32 -39 -7 -3 -13 -13 -13 -24 0 -10 -5 -19 -10 -19 -6 0 -16 -12 -22 -26
-11 -23 -15 -25 -52 -18 -23 4 -58 8 -79 8 -21 1 -41 6 -45 13 -4 6 -20 16
-35 22 -26 10 -36 34 -19 45 5 3 23 -4 42 -15 24 -15 35 -17 40 -9 4 7 16 9
28 6 17 -6 19 -3 15 12 -2 11 0 23 6 26 20 13 13 39 -9 33 -11 -3 -20 -1 -20
5 0 5 -12 7 -27 4 -19 -4 -41 1 -65 14 -21 11 -47 20 -58 20 -11 0 -20 7 -20
15 0 23 -36 18 -53 -7 -15 -22 -16 -21 -16 30 -1 37 -5 52 -15 52 -8 0 -16 -7
-20 -15 -3 -8 -11 -15 -17 -15 -8 0 -10 15 -7 45 3 25 2 45 -3 45 -5 0 -9 -6
-9 -14 0 -9 -7 -12 -18 -9 -11 2 -29 -7 -45 -23 -29 -28 -49 -26 -31 4 8 12 8
24 0 42 -10 23 -11 22 -14 -20 -3 -43 13 -196 24 -225 7 -18 43 -20 46 -2 1 6
2 25 2 42 1 20 9 33 27 44 23 13 28 12 60 -10 19 -13 36 -25 38 -26 11 -7 -33
-41 -60 -47 -34 -6 -37 -25 -9 -51 11 -10 20 -24 20 -31 0 -8 9 -13 22 -11 17
1 24 -4 26 -20 2 -13 -1 -23 -7 -23 -6 0 -11 -6 -11 -14 0 -19 49 -78 60 -71
4 3 13 -1 18 -8 13 -16 81 -10 83 7 1 6 3 18 4 26 1 8 3 25 4 38 1 27 18 28
65 5 41 -21 44 -33 16 -58 -28 -25 -25 -38 15 -67 38 -27 110 -31 127 -6 5 7
7 48 6 91 -3 68 -1 77 14 77 10 0 18 -4 18 -10 0 -21 20 -9 26 16 6 23 8 24
16 9 7 -12 17 -15 34 -11 28 7 30 -1 9 -30 -12 -18 -35 -72 -51 -124 -5 -16
29 -34 79 -43 34 -5 107 27 107 48 0 8 -14 25 -31 37 -23 17 -29 28 -24 45 4
16 0 25 -10 29 -8 4 -15 12 -15 20 0 8 -4 14 -10 14 -5 0 -1 9 11 21 l21 21
-26 27 c-30 32 -32 47 -9 73 9 10 11 18 5 18 -6 0 -14 -4 -17 -10 -13 -21 -27
-9 -22 18 4 22 1 31 -16 42 -35 22 -79 21 -99 -3 -10 -11 -18 -15 -18 -9 0 6
5 14 10 17 6 3 10 13 10 22 0 15 -2 14 -18 0 -26 -24 -28 -22 -24 24 3 32 1
40 -9 37 -8 -3 -15 -10 -15 -16 -3 -26 -5 -26 -24 -2 -23 29 -26 48 -6 31 12
-10 18 -7 30 16 12 22 15 24 16 9 0 -15 3 -16 15 -6 8 6 14 15 13 18 -2 20 4
30 22 35 13 3 20 0 20 -9 0 -8 -6 -14 -13 -14 -6 0 -18 -14 -26 -31 -12 -27
-11 -33 3 -47 16 -16 17 -16 10 3 -6 16 -5 18 7 8 18 -18 59 -16 59 2 0 9 6
12 15 9 17 -7 21 11 5 21 -6 4 -8 15 -5 26 5 14 3 17 -9 13 -11 -4 -16 0 -16
15 0 25 13 27 34 6 10 -11 17 -12 22 -4 3 6 0 15 -7 20 -7 4 -10 11 -6 16 5 4
12 2 16 -5 4 -8 15 -10 26 -6 13 5 16 4 11 -4 -4 -7 -3 -12 3 -12 14 0 30 33
28 58 -1 16 -6 20 -19 16 -12 -3 -18 0 -18 10 0 8 -7 21 -14 29 -13 13 -12 17
10 37 24 23 35 15 12 -8 -24 -24 -1 -21 35 5 20 14 40 23 44 19 4 -4 -3 -9
-15 -13 -12 -3 -22 -12 -22 -19 0 -17 12 -18 29 -1 11 10 11 8 0 -10 -7 -12
-11 -25 -8 -28 11 -11 39 7 39 25 0 11 5 22 11 26 8 4 9 -1 5 -17 l-6 -24 11
23 c7 12 16 22 21 22 5 0 6 -10 2 -22 -6 -22 -6 -23 13 -5 17 15 21 16 26 3 4
-9 -3 -16 -19 -20 -31 -8 -31 -28 2 -43 19 -9 32 -9 47 -2 15 8 22 8 28 -2 6
-11 11 -11 21 -1 6 6 18 12 26 12 8 0 21 8 29 18 8 9 12 12 9 5 -4 -8 3 -11
21 -9 22 3 28 8 28 27 0 15 -8 28 -22 34 -14 6 -23 19 -23 32 0 12 -5 25 -10
28 -6 4 -8 11 -5 16 4 5 1 9 -4 9 -6 0 -11 7 -11 15 0 8 -6 15 -14 15 -8 0
-22 3 -30 6 -12 5 -15 2 -10 -10 5 -12 2 -15 -10 -10 -10 4 -15 13 -12 20 3 8
-1 14 -9 14 -8 0 -15 -4 -15 -9 0 -5 -11 -11 -25 -13 -29 -6 -29 -5 -12 23 10
17 10 23 0 26 -7 3 -13 13 -13 24 0 17 -2 18 -14 7 -9 -8 -11 -17 -5 -22 5 -6
9 -17 9 -25 -1 -14 -3 -13 -14 2 -16 21 -26 22 -26 3 0 -8 -4 -17 -9 -21 -6
-3 -8 5 -6 18 4 21 2 22 -41 20 -25 -1 -43 1 -40 6 8 12 46 21 46 10 0 -5 5
-9 11 -9 6 0 9 6 7 13 -3 6 -20 13 -39 13 -26 1 -41 -6 -62 -29 -21 -22 -28
-25 -25 -12 2 10 -1 20 -7 21 -11 4 -69 -42 -71 -57 -1 -5 -2 -13 -3 -18 0 -5
-11 -11 -23 -14 -21 -6 -21 -7 -5 -25 23 -25 22 -37 -2 -13 -24 24 -17 65 15
90 13 10 24 23 24 27 0 4 -5 3 -12 -4 -19 -19 -29 -14 -16 8 8 13 16 16 22 10
14 -14 26 -12 26 5 0 7 8 19 18 25 15 10 15 11 -3 5 -11 -4 -29 -9 -40 -10
-11 -2 -29 -7 -39 -11 -14 -5 -17 -4 -12 4 4 7 14 12 22 12 8 0 14 4 14 10 0
5 7 7 15 4 8 -4 15 -2 15 4 0 5 7 9 16 8 9 0 19 5 22 13 3 10 0 12 -12 8 -10
-4 -16 -1 -16 8 0 8 -4 15 -9 15 -5 0 -7 -9 -4 -20 3 -11 0 -20 -6 -20 -11 0
-15 13 -12 38 2 9 -6 11 -26 6 -16 -4 -24 -3 -20 2 8 9 12 10 38 13 6 0 9 7 6
15 -3 7 0 19 6 25 9 9 8 14 -3 21 -8 5 -10 10 -5 10 20 0 40 -20 29 -27 -23
-16 -11 -45 25 -60 46 -19 46 -20 31 -38 -10 -12 -9 -15 5 -15 15 0 15 -3 5
-15 -11 -13 -11 -18 0 -28 10 -9 11 -9 6 1 -5 7 2 16 18 22 17 6 24 14 20 25
-8 19 0 19 18 1 23 -23 54 -28 68 -11 10 12 10 18 0 30 -10 12 -8 18 11 35 13
10 21 19 16 20 -9 0 41 98 55 106 13 8 25 -5 13 -14 -6 -4 -16 -18 -23 -32 -6
-14 -17 -33 -24 -42 -9 -13 -10 -20 -2 -28 8 -8 20 -2 43 20 32 33 46 75 16
50 -11 -9 -15 -9 -15 -1 0 6 7 14 15 18 12 4 14 14 10 39 -3 20 -1 34 5 34 6
0 10 4 10 10 0 15 -33 0 -52 -24 -10 -12 -18 -16 -18 -9 0 7 11 23 25 37 24
24 35 53 15 41 -6 -4 -10 7 -10 26 0 27 -2 30 -15 19 -9 -8 -13 -21 -9 -32 11
-37 -5 -76 -38 -87 -24 -9 -28 -14 -19 -24 11 -14 9 -93 -3 -104 -13 -13 -18
7 -6 22 10 12 10 15 -4 15 -9 0 -16 7 -16 16 0 8 5 12 10 9 11 -7 13 9 4 42
-7 26 -35 35 -52 17 -14 -15 0 -54 18 -54 6 0 10 -4 10 -10 0 -18 -17 -10 -30
15 -15 28 -41 32 -64 10 -17 -17 -46 -20 -46 -5 0 21 38 52 57 46 10 -3 25 -1
33 4 12 8 9 10 -12 10 -16 0 -28 5 -28 10 0 6 -7 10 -15 10 -8 0 -15 -8 -15
-17 0 -13 -3 -14 -12 -5 -9 9 -8 16 6 31 15 17 15 19 1 25 -9 3 -14 10 -11 15
3 5 0 14 -8 20 -10 9 -16 8 -26 -4 -10 -12 -10 -15 4 -15 21 0 20 -10 -1 -25
-17 -12 -17 -14 1 -34 11 -12 14 -21 8 -21 -6 0 -16 9 -22 20 -6 11 -17 20
-25 20 -17 0 -29 35 -26 78 2 28 0 32 -23 32 -14 0 -27 6 -27 13 -4 35 -5 91
-2 81 2 -7 13 -10 23 -7 23 6 27 23 6 23 -7 0 -21 11 -30 25 -9 14 -12 25 -6
25 7 0 6 8 -2 23 -6 12 -12 38 -12 57 -1 54 -26 49 -81 -17z m-127 -217 c-7
-8 -15 -12 -17 -11 -5 6 10 25 20 25 5 0 4 -6 -3 -14z m43 -44 c-13 -25 -45
-36 -66 -24 -15 8 -15 10 0 22 13 11 14 10 8 -5 -5 -15 -3 -17 11 -12 10 4 21
7 26 7 5 0 12 9 15 21 4 11 9 18 12 16 2 -3 0 -14 -6 -25z m-16 -52 c-3 -5
-13 -10 -21 -10 -8 0 -12 5 -9 10 3 6 13 10 21 10 8 0 12 -4 9 -10z m125 0 c0
-5 -4 -10 -10 -10 -5 0 -10 5 -10 10 0 6 5 10 10 10 6 0 10 -4 10 -10z m230
-10 c0 -5 -4 -10 -10 -10 -5 0 -10 5 -10 10 0 6 5 10 10 10 6 0 10 -4 10 -10z
m-370 -19 c0 -16 -28 -20 -40 -5 -10 12 -8 14 14 14 14 0 26 -4 26 -9z m80 -1
c0 -5 -2 -10 -4 -10 -3 0 -8 5 -11 10 -3 6 -1 10 4 10 6 0 11 -4 11 -10z m0
-29 c0 -5 -9 -11 -21 -14 -16 -4 -18 -3 -8 9 13 16 29 19 29 5z m240 -11 c0
-5 -4 -10 -10 -10 -5 0 -10 5 -10 10 0 6 5 10 10 10 6 0 10 -4 10 -10z m-400
-4 c0 -2 -8 -10 -17 -17 -16 -13 -17 -12 -4 4 13 16 21 21 21 13z m440 -2 c0
-13 -21 -44 -30 -44 -14 0 -12 24 2 38 13 13 28 16 28 6z m220 2 c0 -3 -4 -8
-10 -11 -5 -3 -10 -1 -10 4 0 6 5 11 10 11 6 0 10 -2 10 -4z m-733 -108 c-3
-8 -6 -5 -6 6 -1 11 2 17 5 13 3 -3 4 -12 1 -19z m3 -64 c0 -12 -2 -12 -14 -2
-8 7 -12 16 -9 21 7 11 23 -2 23 -19z m330 6 c0 -5 -4 -10 -10 -10 -5 0 -10 5
-10 10 0 6 5 10 10 10 6 0 10 -4 10 -10z m94 -21 c-31 -12 -39 -10 -19 5 11 8
24 12 29 8 5 -3 1 -9 -10 -13z m-309 -98 c-10 -16 -25 -3 -25 22 0 20 1 20 16
5 9 -9 13 -21 9 -27z m415 14 c-7 -9 -11 -17 -9 -18 2 -1 16 -9 32 -17 15 -7
27 -19 27 -27 0 -17 -17 -17 -23 0 -5 15 -12 9 -21 -20 -7 -22 -6 -22 24 -6
31 15 57 10 30 -7 -12 -7 -10 -11 10 -19 l25 -11 -25 2 c-14 0 -33 -2 -43 -7
-10 -4 -23 -2 -32 5 -8 7 -22 10 -30 6 -10 -3 -15 1 -15 13 0 11 6 21 13 24 6
2 9 8 5 12 -4 4 -15 0 -24 -9 -23 -24 -29 -13 -9 18 10 15 25 25 34 24 9 -2
15 3 13 11 -4 20 5 41 19 41 8 0 8 -4 -1 -15z m130 -15 c8 -5 11 -10 5 -10 -5
0 -17 5 -25 10 -8 5 -10 10 -5 10 6 0 17 -5 25 -10z m-300 -27 c0 -20 -3 -24
-11 -16 -7 7 -9 19 -6 27 10 24 17 19 17 -11z m265 17 c4 -6 -6 -10 -22 -9
-25 0 -26 1 -8 9 11 5 21 9 22 9 1 1 5 -3 8 -9z m100 -20 c-3 -5 -11 -10 -16
-10 -6 0 -7 5 -4 10 3 6 11 10 16 10 6 0 7 -4 4 -10z m-70 -10 c3 -5 1 -10 -4
-10 -6 0 -11 5 -11 10 0 6 2 10 4 10 3 0 8 -4 11 -10z m-25 -14 c0 -3 -4 -8
-10 -11 -5 -3 -10 -1 -10 4 0 6 5 11 10 11 6 0 10 -2 10 -4z m-368 -42 c-3
-17 -8 -22 -15 -15 -7 7 -6 15 3 26 17 20 18 19 12 -11z m43 -23 c-6 -5 -25
10 -25 20 0 5 6 4 14 -3 8 -7 12 -15 11 -17z m80 19 c3 -5 1 -10 -4 -10 -6 0
-11 5 -11 10 0 6 2 10 4 10 3 0 8 -4 11 -10z m42 -32 c-3 -8 -6 -5 -6 6 -1 11
2 17 5 13 3 -3 4 -12 1 -19z m-182 2 c4 -6 12 -10 18 -9 30 5 117 -15 114 -25
-2 -6 -14 -10 -25 -8 -25 4 -29 -13 -8 -34 19 -18 27 -18 20 1 -4 8 -1 15 5
15 6 0 11 -4 11 -10 0 -5 5 -10 11 -10 8 0 8 4 -1 15 -12 15 -6 35 11 35 5 0
9 -16 9 -35 0 -28 -4 -35 -19 -35 -10 0 -22 -8 -26 -17 -7 -17 -8 -16 -15 2
-5 11 -9 15 -9 9 -1 -7 -15 -11 -33 -9 -29 3 -33 6 -31 28 1 18 -4 28 -18 32
-10 4 -19 14 -19 24 0 9 -5 22 -12 29 -9 9 -9 12 -1 12 7 0 15 -5 18 -10z
m195 -52 c0 -7 -4 -19 -9 -27 -7 -10 -9 -7 -8 12 2 26 17 39 17 15z m-184 -43
c-4 -38 -16 -43 -16 -7 0 18 4 32 9 32 5 0 8 -11 7 -25z m-26 11 c0 -3 -4 -8
-10 -11 -5 -3 -10 -1 -10 4 0 6 5 11 10 11 6 0 10 -2 10 -4z m-17 -51 c-7 -21
-12 -19 -10 4 0 11 5 18 9 15 4 -3 5 -11 1 -19z m179 -32 c-14 -26 -51 -57
-58 -50 -6 6 57 76 64 71 2 -1 -1 -11 -6 -21z m102 -39 c9 -3 16 -11 16 -16 0
-6 -7 -7 -16 -4 -9 4 -23 1 -30 -5 -17 -14 -19 2 -2 19 14 14 12 14 32 6z"/>
<path d="M1645 1910 c-3 -5 4 -10 15 -10 18 0 21 -4 16 -24 -4 -18 -1 -25 13
-29 17 -4 18 -2 11 19 -5 13 -7 31 -4 39 5 11 -1 15 -19 15 -14 0 -29 -4 -32
-10z"/>
<path d="M2115 2780 c-3 -5 -1 -10 4 -10 6 0 11 5 11 10 0 6 -2 10 -4 10 -3 0
-8 -4 -11 -10z"/>
<path d="M2070 2770 c0 -5 5 -10 11 -10 5 0 7 5 4 10 -3 6 -8 10 -11 10 -2 0
-4 -4 -4 -10z"/>
<path d="M1768 2748 c9 -9 15 -9 24 0 9 9 7 12 -12 12 -19 0 -21 -3 -12 -12z"/>
<path d="M2302 2731 c-7 -4 -10 -15 -6 -24 7 -20 21 -22 27 -4 2 6 2 0 0 -15
-4 -23 -1 -28 16 -28 12 0 21 -4 21 -10 0 -5 9 -10 20 -10 11 0 20 5 20 10 0
6 10 15 23 20 19 9 18 10 -11 7 -19 -2 -37 2 -44 10 -16 19 -2 29 19 12 15
-13 15 -12 0 12 -17 26 -59 36 -85 20z"/>
<path d="M2200 2720 c0 -5 5 -10 11 -10 5 0 7 5 4 10 -3 6 -8 10 -11 10 -2 0
-4 -4 -4 -10z"/>
<path d="M2074 2703 c-13 -40 -30 -66 -48 -73 -13 -4 -16 -9 -8 -14 21 -13
-11 -35 -41 -29 -21 4 -27 1 -27 -11 0 -10 5 -14 10 -11 6 3 10 -1 10 -10 0
-11 -5 -15 -15 -12 -8 4 -17 2 -19 -2 -3 -5 -18 -6 -32 -3 -19 3 -25 1 -20 -7
4 -6 11 -9 16 -6 5 3 11 -4 15 -15 3 -11 14 -20 23 -20 14 0 15 2 2 10 -11 7
-9 11 13 19 15 6 27 17 27 26 0 30 18 14 22 -20 3 -24 0 -35 -9 -35 -7 0 -13
5 -13 12 0 6 -2 9 -5 6 -12 -11 8 -39 25 -35 9 2 25 0 34 -5 12 -7 16 -5 16 7
0 8 4 15 10 15 5 0 8 -13 7 -30 -1 -20 -7 -30 -18 -30 -12 0 -15 -7 -11 -25 2
-14 9 -25 14 -25 6 0 8 7 4 15 -3 8 0 15 7 15 7 1 23 10 36 21 l24 19 -24 22
c-16 14 -18 19 -7 15 11 -4 24 2 35 16 18 23 83 35 83 16 0 -13 74 0 79 14 2
5 12 -1 21 -14 15 -20 20 -21 34 -10 22 18 20 31 -5 31 -19 0 -49 21 -49 34 0
3 11 1 25 -4 25 -9 36 2 14 15 -18 12 -59 -4 -53 -20 8 -20 -6 -19 -23 3 -13
15 -14 15 -8 -10 6 -31 -11 -39 -22 -10 -4 9 -14 22 -22 29 -14 10 -14 13 3
32 23 25 16 37 -12 22 -17 -9 -22 -8 -27 10 -4 13 -12 18 -21 15 -8 -3 -14 0
-13 7 1 6 -2 22 -6 35 -9 26 -43 30 -51 5z"/>
<path d="M2155 2700 c-3 -5 -1 -10 4 -10 6 0 11 5 11 10 0 6 -2 10 -4 10 -3 0
-8 -4 -11 -10z"/>
<path d="M1788 2678 c-16 -5 -28 -13 -28 -17 0 -15 13 -21 26 -10 9 7 18 6 33
-3 11 -7 24 -9 28 -5 4 5 1 12 -7 17 -14 9 -7 14 13 11 5 -1 6 3 2 9 -8 12
-31 12 -67 -2z"/>
<path d="M1880 2660 c-13 -8 -12 -10 3 -10 9 0 17 5 17 10 0 12 -1 12 -20 0z"/>
<path d="M2180 2659 c0 -5 5 -7 10 -4 6 3 10 8 10 11 0 2 -4 4 -10 4 -5 0 -10
-5 -10 -11z"/>
<path d="M2244 2658 c-3 -4 11 -8 30 -8 29 0 37 -4 42 -24 8 -33 57 -51 79
-30 19 19 19 19 -5 21 -11 1 -20 -2 -20 -8 0 -20 -26 -6 -45 24 -15 23 -28 32
-48 32 -16 1 -31 -3 -33 -7z"/>
<path d="M1868 2623 c-9 -10 -19 -28 -23 -41 -5 -19 -3 -23 12 -20 25 4 43 23
45 49 4 28 -14 34 -34 12z m27 -3 c3 -5 1 -10 -4 -10 -6 0 -11 5 -11 10 0 6 2
10 4 10 3 0 8 -4 11 -10z m-5 -24 c0 -3 -4 -8 -10 -11 -5 -3 -10 -1 -10 4 0 6
5 11 10 11 6 0 10 -2 10 -4z"/>
<path d="M2442 2628 c-14 -14 -16 -42 -3 -34 7 5 23 46 17 46 -1 0 -7 -5 -14
-12z"/>
<path d="M1805 2621 c-3 -5 -1 -12 5 -16 5 -3 10 1 10 9 0 18 -6 21 -15 7z"/>
<path d="M2355 2560 c3 -5 8 -10 11 -10 2 0 4 5 4 10 0 6 -5 10 -11 10 -5 0
-7 -4 -4 -10z"/>
<path d="M1840 2510 c0 -5 5 -10 10 -10 6 0 10 5 10 10 0 6 -4 10 -10 10 -5 0
-10 -4 -10 -10z"/>
<path d="M2273 2500 c-13 -5 -23 -15 -23 -21 0 -8 4 -9 13 0 8 6 16 8 19 5 3
-2 8 2 11 11 4 8 5 15 4 14 -1 0 -12 -4 -24 -9z"/>
<path d="M2170 2490 c0 -5 5 -10 11 -10 5 0 7 5 4 10 -3 6 -8 10 -11 10 -2 0
-4 -4 -4 -10z"/>
<path d="M2210 2480 c0 -5 5 -10 10 -10 6 0 10 5 10 10 0 6 -4 10 -10 10 -5 0
-10 -4 -10 -10z"/>
<path d="M1910 2464 c0 -3 11 -19 25 -36 29 -34 31 -33 9 10 -13 28 -34 43
-34 26z"/>
<path d="M1821 2439 c10 -20 24 -25 33 -11 2 4 -6 12 -20 19 -21 10 -23 9 -13
-8z"/>
<path d="M1971 2434 c13 -14 25 -20 27 -15 4 13 -22 41 -39 41 -7 0 -2 -11 12
-26z"/>
<path d="M2010 2449 c0 -5 5 -7 10 -4 6 3 10 8 10 11 0 2 -4 4 -10 4 -5 0 -10
-5 -10 -11z"/>
<path d="M2222 2451 c-10 -6 -9 -11 5 -22 10 -7 15 -9 11 -5 -4 5 -3 15 3 23
13 14 1 17 -19 4z"/>
<path d="M2270 2440 c0 -5 5 -10 10 -10 6 0 10 5 10 10 0 6 -4 10 -10 10 -5 0
-10 -4 -10 -10z"/>
<path d="M2085 2400 c-3 -5 -2 -10 4 -10 5 0 13 5 16 10 3 6 2 10 -4 10 -5 0
-13 -4 -16 -10z"/>
<path d="M2215 2400 c-3 -5 -1 -10 4 -10 6 0 11 5 11 10 0 6 -2 10 -4 10 -3 0
-8 -4 -11 -10z"/>
<path d="M2248 2388 c-4 -9 -1 -21 5 -26 27 -21 37 -23 37 -8 0 9 -6 16 -14
16 -8 0 -16 8 -18 18 -3 16 -4 16 -10 0z"/>
<path d="M2310 2350 c-8 -5 -12 -12 -9 -15 4 -3 12 1 19 10 14 17 11 19 -10 5z"/>
<path d="M2212 2338 c-14 -14 -16 -32 -2 -23 6 4 10 -7 10 -25 0 -24 -4 -30
-17 -28 -10 2 -19 -5 -21 -16 -3 -13 0 -16 10 -10 7 5 20 9 28 9 9 0 15 12 17
34 2 19 9 41 15 49 11 13 10 15 -4 9 -9 -3 -18 -1 -20 4 -2 6 -8 5 -16 -3z"/>
<path d="M2418 2336 c-24 -18 -23 -30 2 -23 24 6 36 -9 31 -42 -2 -15 1 -21 8
-16 6 3 9 11 5 16 -3 5 1 22 9 38 14 27 13 30 -7 35 -28 8 -28 7 -48 -8z"/>
<path d="M1487 2333 c-9 -2 -15 -9 -12 -14 9 -14 22 -11 29 6 3 8 4 14 3 14
-1 -1 -10 -3 -20 -6z"/>
<path d="M1491 2291 c-8 -5 -12 -18 -8 -30 7 -27 -20 -51 -34 -30 -5 8 -8 21
-8 29 1 11 3 10 6 -2 5 -22 23 -24 23 -4 0 19 -14 28 -34 20 -19 -7 -20 -31
-3 -67 11 -25 27 -36 27 -19 0 4 10 18 23 32 12 14 23 37 25 53 4 30 3 31 -17
18z"/>
<path d="M1635 2240 c-3 -5 -2 -10 4 -10 5 0 13 5 16 10 3 6 2 10 -4 10 -5 0
-13 -4 -16 -10z"/>
<path d="M2250 2240 c0 -6 -9 -14 -20 -18 -20 -8 -20 -8 3 -30 l24 -23 0 41
c0 22 -2 40 -4 40 -1 0 -3 -5 -3 -10z"/>
<path d="M1570 2210 c0 -5 5 -10 10 -10 6 0 10 5 10 10 0 6 -4 10 -10 10 -5 0
-10 -4 -10 -10z"/>
<path d="M2080 2200 c-12 -8 -13 -11 -1 -19 9 -6 10 -11 2 -15 -16 -11 -13
-20 12 -35 19 -12 20 -12 11 0 -6 8 -10 29 -9 47 2 17 2 32 2 32 -1 0 -9 -5
-17 -10z"/>
<path d="M2165 2193 c4 -14 2 -23 -4 -23 -6 0 -11 -4 -11 -10 0 -16 17 -12 24
6 3 9 1 23 -4 32 -9 14 -10 13 -5 -5z"/>
<path d="M2190 2191 c0 -6 5 -13 10 -16 6 -3 10 1 10 9 0 9 -4 16 -10 16 -5 0
-10 -4 -10 -9z"/>
<path d="M2734 2172 c-12 -8 -16 -52 -4 -52 8 0 24 49 18 56 -2 1 -8 0 -14 -4z"/>
<path d="M2247 2146 c-4 -10 -1 -13 9 -9 15 6 19 23 5 23 -5 0 -11 -7 -14 -14z"/>
<path d="M2155 2120 c-3 -6 1 -7 9 -4 18 7 21 14 7 14 -6 0 -13 -4 -16 -10z"/>
<path d="M2846 2121 c-8 -13 -104 -21 -131 -11 -22 8 -26 6 -31 -16 -4 -14 -4
-43 0 -65 4 -22 1 -58 -5 -79 -14 -45 -3 -67 34 -72 12 -2 23 -12 25 -23 8
-43 22 -46 63 -12 21 17 39 39 39 48 0 23 38 107 50 111 14 4 15 80 1 106 -12
22 -35 29 -45 13z m34 -56 c0 -8 -4 -15 -10 -15 -5 0 -10 7 -10 15 0 8 5 15
10 15 6 0 10 -7 10 -15z m-110 -70 c-1 -14 -52 -27 -63 -16 -5 5 -6 14 -3 20
9 13 67 10 66 -4z"/>
<path d="M2267 2114 c-8 -8 3 -34 14 -34 11 0 12 27 0 34 -4 3 -11 3 -14 0z"/>
<path d="M2310 2109 c0 -5 5 -7 10 -4 6 3 10 8 10 11 0 2 -4 4 -10 4 -5 0 -10
-5 -10 -11z"/>
<path d="M2205 2100 c3 -5 8 -10 11 -10 2 0 4 5 4 10 0 6 -5 10 -11 10 -5 0
-7 -4 -4 -10z"/>
<path d="M1350 2071 c0 -17 5 -31 10 -31 6 0 10 -8 10 -17 0 -13 3 -14 12 -5
9 9 9 15 0 24 -7 7 -12 20 -12 29 0 10 -4 21 -10 24 -6 4 -10 -7 -10 -24z"/>
<path d="M1427 2081 c-3 -11 1 -25 9 -32 8 -7 12 -19 9 -28 -3 -8 -3 -12 1 -8
4 4 14 1 22 -6 13 -10 14 -8 7 13 -4 14 -15 38 -25 53 -16 27 -18 27 -23 8z"/>
<path d="M2165 2090 c-3 -5 1 -10 9 -10 9 0 16 5 16 10 0 6 -4 10 -9 10 -6 0
-13 -4 -16 -10z"/>
<path d="M2377 2043 c-4 -3 -7 -11 -7 -17 0 -6 5 -5 12 2 6 6 9 14 7 17 -3 3
-9 2 -12 -2z"/>
<path d="M1406 2033 c-12 -12 -6 -33 9 -33 8 0 15 6 15 14 0 17 -14 28 -24 19z"/>
<path d="M2320 2020 c0 -5 5 -10 10 -10 6 0 10 5 10 10 0 6 -4 10 -10 10 -5 0
-10 -4 -10 -10z"/>
<path d="M2404 2003 c-4 -16 -6 -32 -5 -37 1 -4 -3 -14 -9 -21 -6 -7 -12 -31
-14 -52 -1 -22 -6 -45 -10 -52 -13 -21 3 -25 24 -6 17 15 22 16 37 4 15 -12
16 -12 10 4 -5 13 -3 17 5 13 7 -3 20 -9 30 -12 36 -13 25 -82 -18 -104 -19
-11 -44 -61 -44 -90 0 -10 5 -9 18 3 23 21 32 21 47 0 11 -15 8 -23 -21 -55
-19 -21 -34 -45 -34 -53 0 -7 -8 -18 -17 -24 -14 -8 -15 -12 -4 -25 7 -9 22
-16 31 -16 10 0 27 -11 37 -24 l19 -24 17 44 c9 24 14 60 12 81 -4 32 -3 34 3
8 5 -23 13 -30 32 -32 14 -1 39 -4 55 -6 28 -5 94 24 96 41 2 15 8 48 15 74 5
24 2 29 -44 52 -58 30 -104 79 -78 84 9 2 16 8 16 14 0 6 12 21 26 35 28 26
29 56 1 61 -10 2 -29 14 -43 27 -14 13 -43 26 -65 30 -32 6 -38 10 -28 21 8
10 6 19 -9 39 l-20 25 -17 -26 c-13 -20 -19 -23 -25 -14 -5 7 -6 19 -3 27 3 7
1 13 -5 13 -5 0 -13 -12 -18 -27z m207 -166 c-10 -9 -11 -8 -5 6 3 10 9 15 12
12 3 -3 0 -11 -7 -18z m-37 -99 c-7 -10 -34 -10 -34 0 0 4 5 13 12 20 9 9 14
9 19 0 4 -7 5 -16 3 -20z"/>
<path d="M2349 1953 c-13 -16 -12 -17 4 -4 9 7 17 15 17 17 0 8 -8 3 -21 -13z"/>
<path d="M1444 1951 c4 -5 0 -12 -6 -14 -10 -4 -10 -6 0 -6 7 -1 17 -13 22
-27 8 -19 6 -29 -6 -41 -18 -18 -9 -31 24 -36 13 -2 35 -16 49 -31 39 -43 39
-23 -2 43 -20 34 -34 65 -31 69 3 5 -6 19 -19 30 -26 23 -40 29 -31 13z m46
-107 c0 -8 -4 -12 -10 -9 -5 3 -10 10 -10 16 0 5 5 9 10 9 6 0 10 -7 10 -16z"/>
<path d="M1993 1893 c-21 -8 -15 -22 7 -16 11 3 20 9 20 14 0 10 -8 10 -27 2z"/>
<path d="M2070 1861 c0 -6 5 -13 10 -16 6 -3 10 1 10 9 0 9 -4 16 -10 16 -5 0
-10 -4 -10 -9z"/>
<path d="M1300 1845 c0 -18 19 -40 26 -32 4 4 0 15 -9 24 -9 10 -17 13 -17 8z"/>
<path d="M2290 1840 c0 -5 5 -10 10 -10 6 0 10 5 10 10 0 6 -4 10 -10 10 -5 0
-10 -4 -10 -10z"/>
<path d="M1400 1814 c0 -9 -5 -12 -12 -8 -9 5 -9 2 1 -9 19 -24 31 -21 31 8 0
14 -4 25 -10 25 -5 0 -10 -7 -10 -16z"/>
<path d="M2065 1810 c-3 -5 1 -10 9 -10 8 0 18 5 21 10 3 6 -1 10 -9 10 -8 0
-18 -4 -21 -10z"/>
<path d="M1455 1800 c3 -5 8 -10 11 -10 2 0 4 5 4 10 0 6 -5 10 -11 10 -5 0
-7 -4 -4 -10z"/>
<path d="M1490 1802 c0 -7 4 -12 9 -12 5 0 12 -11 15 -25 4 -14 11 -25 16 -25
18 0 10 26 -15 50 -14 13 -25 18 -25 12z"/>
<path d="M2047 1762 c-10 -10 -17 -24 -17 -30 0 -18 -17 -23 -24 -6 -3 8 -2
12 4 9 6 -3 10 -1 10 4 0 6 -11 11 -24 11 -14 0 -28 5 -31 10 -7 11 -35 -12
-35 -29 0 -14 6 -14 30 -1 16 8 18 8 14 -5 -4 -8 -11 -15 -18 -15 -11 0 -46
-35 -46 -46 0 -3 7 -4 15 0 13 4 14 2 5 -14 -9 -18 -8 -19 12 -11 13 5 22 15
21 23 -2 7 4 3 13 -9 19 -27 59 -30 72 -7 6 11 12 13 16 6 4 -6 14 -8 23 -5
11 4 14 3 9 -5 -4 -7 -3 -12 3 -12 5 0 11 5 13 12 2 6 10 8 16 4 14 -8 16 -66
3 -66 -5 0 -13 -10 -17 -22 -9 -28 20 -52 47 -38 12 7 20 7 24 0 10 -16 23
-12 30 9 4 13 19 21 50 25 69 11 84 52 24 71 -10 4 -19 13 -19 21 0 8 -9 23
-20 34 -11 11 -20 24 -20 30 0 5 -11 17 -25 26 -20 13 -28 14 -39 5 -12 -10
-15 -7 -19 16 -4 24 -5 25 -11 8 -9 -27 -73 -29 -68 -2 4 22 -1 21 -21 -1z
m-47 -62 c0 -5 -5 -10 -11 -10 -5 0 -7 5 -4 10 3 6 8 10 11 10 2 0 4 -4 4 -10z"/>
<path d="M2317 1750 c-10 -10 -14 -21 -9 -24 11 -7 36 19 30 32 -1 5 -11 1
-21 -8z"/>
<path d="M2387 1734 c-4 -4 -7 -14 -7 -23 0 -11 3 -12 11 -4 6 6 10 16 7 23
-2 6 -7 8 -11 4z"/>
<path d="M1480 1726 c0 -2 7 -7 16 -10 8 -3 12 -2 9 4 -6 10 -25 14 -25 6z"/>
<path d="M2020 1617 c-34 -15 -33 -14 -25 -27 5 -8 11 -8 21 1 11 9 14 9 14
-1 0 -13 15 -5 15 8 0 4 4 13 8 20 10 15 0 14 -33 -1z"/>
<path d="M1655 1610 c-3 -5 -2 -10 4 -10 5 0 13 5 16 10 3 6 2 10 -4 10 -5 0
-13 -4 -16 -10z"/>
<path d="M2360 1501 c0 -25 -17 -36 -34 -22 -10 9 -21 7 -44 -6 -30 -17 -32
-17 -54 3 -35 31 -142 19 -151 -17 -5 -17 -1 -19 29 -15 34 3 35 2 29 -25 -4
-18 -2 -29 4 -29 17 0 13 -30 -4 -36 -8 -4 -15 -17 -15 -30 0 -19 8 -25 42
-35 29 -7 48 -8 58 -1 11 7 23 6 36 -1 30 -17 62 -17 68 0 4 8 13 13 21 9 9
-3 21 5 32 22 10 15 33 46 51 69 39 48 37 69 -7 84 -17 6 -33 19 -36 30 -8 25
-25 25 -25 0z"/>
</g>
</svg>
